<?xml version="1.0" encoding="UTF-8"?><svg id="a" xmlns="http://www.w3.org/2000/svg" viewBox="0 0 211.39 213.71"><path d="M63.27,113.68c.1.01.19.01.29.01h-.29Z" style="fill:#010101;"/><path d="M158.89,173.78h-31.64c-1.93,0-3.5-1.58-3.5-3.5v-56.58h7.67v34.98c0,9.11,7.39,16.5,16.5,16.5h36.82c0-7.18-5.82-13-13-13h-23.82c-1.93,0-3.5-1.58-3.5-3.5v-9.31h23.76c9.11,0,16.5-7.39,16.5-16.5v-13.58c-7.18,0-13,5.82-13,13v.58c0,1.92-1.58,3.5-3.5,3.5h-23.76v-12.67h.73c.1,0,.19,0,.29-.01,10.39-.15,18.75-8.62,18.75-19.04s-8.36-18.88-18.75-19.03v-10.15c0-21.28-17.25-38.53-38.54-38.53-.42,0-.83.01-1.24.02-.39-.01-.79-.02-1.2-.02-21.29,0-38.54,17.25-38.54,38.53v9.59c0,.32-.24.56-.55.58-10.13.43-18.2,8.78-18.2,19.01s8.36,18.89,18.75,19.04c.1.01.19.01.29.01h.73v12.09c0,.32-.25.58-.58.58h-22.6c-1.12,0-2.14-.46-2.88-1.2-.74-.74-1.2-1.76-1.2-2.88,0-7.18-5.82-13-13-13v13c0,9.43,7.65,17.08,17.08,17.08h22.6c.33,0,.58.26.58.58v8.15c0,2.24-1.83,4.08-4.08,4.08h-23.24c-6.97,0-12.67,5.5-12.98,12.4-.02.33.26.6.58.6h35.64c9.44,0,17.08-7.65,17.08-17.08v-33.82c0-.32.26-.58.58-.58h6.51c.33,0,.58.26.58.58v55.42c0,2.24-1.83,4.08-4.08,4.08h-31.06c-6.97,0-12.67,5.5-12.98,12.4-.02.33.26.6.58.6h43.46c9.44,0,17.08-7.65,17.08-17.08v-55.42c0-.32.26-.58.58-.58h9.56v56.58c0,9.11,7.39,16.5,16.5,16.5h44.64c0-7.18-5.82-13-13-13ZM146.97,86.62c4.41,0,7.98,3.57,7.98,7.98s-3.57,7.98-7.98,7.98-7.98-3.57-7.98-7.98,3.57-7.98,7.98-7.98ZM65.83,102.58c-4.41,0-7.98-3.57-7.98-7.98s3.57-7.98,7.98-7.98,7.98,3.57,7.98,7.98-3.57,7.98-7.98,7.98Z" style="fill:#1aae9f;"/></svg>