<?xml version="1.0" encoding="UTF-8"?><svg id="a" xmlns="http://www.w3.org/2000/svg" viewBox="0 0 326.01 280.06"><path d="M120.58,120.17c.1.01.19.01.29.01h-.29Z" style="fill:#010101;"/><path d="M216.21,180.26h-31.64c-1.93,0-3.5-1.58-3.5-3.5v-56.58h7.67v34.98c0,9.11,7.39,16.5,16.5,16.5h36.82c0-7.18-5.82-13-13-13h-23.82c-1.93,0-3.5-1.58-3.5-3.5v-9.31h23.76c9.11,0,16.5-7.39,16.5-16.5v-13.58c-7.18,0-13,5.82-13,13v.58c0,1.92-1.58,3.5-3.5,3.5h-23.76v-12.67h.73c.1,0,.19,0,.29-.01,10.39-.15,18.75-8.62,18.75-19.04s-8.36-18.88-18.75-19.03v-10.15c0-21.28-17.25-38.53-38.54-38.53-.42,0-.83.01-1.24.02-.39-.01-.79-.02-1.2-.02-21.29,0-38.54,17.25-38.54,38.53v9.59c0,.32-.24.56-.55.58-10.13.43-18.2,8.78-18.2,19.01s8.36,18.89,18.75,19.04c.1.01.19.01.29.01h.73v12.09c0,.32-.25.58-.58.58h-22.6c-1.12,0-2.14-.46-2.88-1.2-.74-.74-1.2-1.76-1.2-2.88,0-7.18-5.82-13-13-13v13c0,9.43,7.65,17.08,17.08,17.08h22.6c.33,0,.58.26.58.58v8.15c0,2.24-1.83,4.08-4.08,4.08h-23.24c-6.97,0-12.67,5.5-12.98,12.4-.02.33.26.6.58.6h35.64c9.44,0,17.08-7.65,17.08-17.08v-33.82c0-.32.26-.58.58-.58h6.51c.33,0,.58.26.58.58v55.42c0,2.24-1.83,4.08-4.08,4.08h-31.06c-6.97,0-12.67,5.5-12.98,12.4-.02.33.26.6.58.6h43.46c9.44,0,17.08-7.65,17.08-17.08v-55.42c0-.32.26-.58.58-.58h9.56v56.58c0,9.11,7.39,16.5,16.5,16.5h44.64c0-7.18-5.82-13-13-13ZM204.29,93.1c4.41,0,7.98,3.57,7.98,7.98s-3.57,7.98-7.98,7.98-7.98-3.57-7.98-7.98,3.57-7.98,7.98-7.98ZM123.15,109.06c-4.41,0-7.98-3.57-7.98-7.98s3.57-7.98,7.98-7.98,7.98,3.57,7.98,7.98-3.57,7.98-7.98,7.98Z" style="fill:#1aae9f;"/><path d="M44.83,230.75c0-2.31,4.72-2.55,6.16-2.55,2.52,0,5.48.53,6.81,2.96l4.84-1.22c-1.91-4.86-6.53-6.2-11.61-6.2-4.65,0-11.42,1.41-11.42,7.01,0,9.44,18.26,4.46,18.26,9,0,2.22-4.96,2.47-6.49,2.47-3.2,0-6.53-.44-7.57-3.36l-4.89,1.13c1.72,5.62,6.61,6.64,12.46,6.64l.03.02c4.53,0,11.73-.85,11.73-6.76,0-9.57-18.31-4.99-18.31-9.13ZM78.72,242.16c-4.32,0-7.64-2.04-7.64-6.82s3.15-7.05,7.64-7.05c3.05,0,6.06,1.11,7.17,4.26l5.08-1.3c-1.97-5.55-6.81-7.42-12.25-7.42-7.01,0-13.02,3.68-13.02,11.47s5.97,11.31,13.02,11.31h.02c5.57,0,10.57-1.71,12.41-7.54l-5.14-1.34c-1.04,3.45-4.06,4.42-7.29,4.42ZM109.13,223.84c-3.76,0-6.49,1.25-8.41,3.15v-10.38h-5.2v29.59h5.2v-10.87c0-4.46,3.32-7.05,7.82-7.05,3.88,0,6.49,1.5,6.49,6.04v11.87h5.19v-11.91c0-7.7-4.32-10.46-11.09-10.46ZM136.84,223.84c-6.98,0-13.02,3.91-13.02,11.56s5.4,11.22,13.06,11.22c5.33,0,10.58-1.16,12.62-6.64l-4.96-1.18c-1.3,3.14-4.72,3.45-7.64,3.45-3.52,0-7.21-1.46-7.61-5.36h20.45v-1.5c0-7.7-5.92-11.56-12.9-11.56ZM129.41,233.04c.84-3.4,4.28-4.74,7.36-4.74s6.53,1.34,7.29,4.74h-14.66ZM173.45,226.99c-1.91-1.94-4.8-3.15-8.13-3.15-6.75,0-12.57,3.4-12.57,11.47s5.8,11.31,12.57,11.31c3.33,0,6.22-1.09,8.13-2.99v2.59h5.2v-29.59h-5.2v10.38ZM165.75,242.16c-4.32,0-7.61-2.04-7.61-6.82s3.12-7.05,7.61-7.05,7.69,2.57,7.69,7.05-3.36,6.82-7.69,6.82ZM224.68,223.84c-6.98,0-13.02,3.91-13.02,11.56s5.41,11.22,13.06,11.22c5.33,0,10.58-1.16,12.62-6.64l-4.96-1.18c-1.32,3.14-4.73,3.45-7.66,3.45-3.52,0-7.21-1.46-7.61-5.36h20.47v-1.5c0-7.7-5.92-11.56-12.9-11.56ZM217.23,233.04c.83-3.4,4.28-4.74,7.36-4.74s6.53,1.34,7.29,4.74h-14.66ZM265.05,224.25h-6.65l-6.74,7.38-6.61-7.38h-6.68l9.89,10.78-10.46,11.19h6.68l7.08-7.79,6.96,7.79h6.68l-10.25-11.19,10.1-10.78ZM285.94,240.56c-1.79,1.18-3.27,1.59-4.84,1.59-2.85,0-4.33-1.09-4.33-3.49v-10.01h9.09v-4.46h-9.09v-6.36h-5.21v6.38h-4.4v4.46h4.4v10.38c0,5.99,4.74,7.57,9.54,7.57v-.02c2.25,0,4.09-.41,6.01-1.43l-1.17-4.62ZM183.53,246.21h23.25v-5.1h-23.25v5.1Z" style="fill:#010101;"/></svg>